{"title":"Wild.2014.1080p.BluRay.x264-SPARKS","uid":11752872,"size":9401830460,"categoryP":"video","categoryS":"hd___movies","magnet":"?xt=urn:btih:ac4b7c928045074f6a574d2d54e57b494d5bf687&amp;dn=Wild.2014.1080p.BluRay.x264-SPARKS&amp;tr=udp%3A%2F%2Ftracker.openbittorrent.com%3A80&amp;tr=udp%3A%2F%2Fopen.demonii.com%3A1337&amp;tr=udp%3A%2F%2Ftracker.coppersurfer.tk%3A6969&amp;tr=udp%3A%2F%2Fexodus.desync.com%3A6969","seeders":73,"leechers":15,"uploader":"makintos13","files":5,"time":1426266104,"description":"SCREENS:\n &lt;a href=&quot;\nhttp://imgsleek.com/img-55030a2c4f34a.html&quot; rel=&quot;nofollow&quot; target=&quot;_NEW&quot;&gt;\nhttp://imgsleek.com/img-55030a2c4f34a.html&lt;/a&gt;\n\n.......................\n\nVideo\nID                                       : 1\nFormat                                   : AVC\nFormat/Info                              : Advanced Video Codec\nFormat profile                           : &lt;a class=&quot;__cf_email__&quot; href=&quot;/cdn-cgi/l/email-protection&quot; data-cfemail=&quot;d79fbeb0bf979be3f9e6&quot;&gt;[email&amp;#160;protected]&lt;/a&gt;&lt;script cf-hash='f9e31' type=&quot;text/javascript&quot;&gt;\n/* &lt;![CDATA[ */!function(){try{var t=&quot;currentScript&quot;in document?document.currentScript:function(){for(var t=document.getElementsByTagName(&quot;script&quot;),e=t.length;e--;)if(t[e].getAttribute(&quot;cf-hash&quot;))return t[e]}();if(t&amp;&amp;t.previousSibling){var e,r,n,i,c=t.previousSibling,a=c.getAttribute(&quot;data-cfemail&quot;);if(a){for(e=&quot;&quot;,r=parseInt(a.substr(0,2),16),n=2;a.length-n;n+=2)i=parseInt(a.substr(n,2),16)^r,e+=String.fromCharCode(i);e=document.createTextNode(e),c.parentNode.replaceChild(e,c)}}}catch(u){}}();/* ]]&gt; */&lt;/script&gt;\nFormat settings, CABAC                   : Yes\nFormat settings, ReFrames                : 5 frames\nCodec ID                                 : V_MPEG4/ISO/AVC\nDuration                                 : 1h 55mn\nBit rate                                 : 9 316 Kbps\nWidth                                    : 1 920 pixels\nHeight                                   : 808 pixels\nDisplay aspect ratio                     : 2.40:1\nFrame rate mode                          : Constant\nFrame rate                               : 23.976 fps\nColor space                              : YUV\nChroma subsampling                       : 4:2:0\nBit depth                                : 8 bits\nScan type                                : Progressive\nBits/(Pixel*Frame)                       : 0.250\nStream size                              : 7.35 GiB (84%)\nWriting library                          : x264 core 144 r2525 40bb568\nEncoding settings                        : cabac=1 / ref=5 / deblock=1:0:0 / analyse=0x3:0x133 / me=umh / subme=7 / psy=1 / psy_rd=1.00:0.00 / mixed_ref=1 / me_range=16 / chroma_me=1 / trellis=1 / 8x8dct=1 / cqm=0 / deadzone=21,11 / fast_pskip=0 / chroma_qp_offset=-2 / threads=18 / lookahead_threads=3 / sliced_threads=0 / nr=0 / decimate=1 / interlaced=0 / bluray_compat=0 / constrained_intra=0 / bframes=3 / b_pyramid=2 / b_adapt=1 / b_bias=0 / direct=1 / weightb=1 / open_gop=0 / weightp=2 / keyint=250 / keyint_min=23 / scenecut=40 / intra_refresh=0 / rc_lookahead=40 / rc=2pass / mbtree=1 / bitrate=9316 / ratetol=1.0 / qcomp=0.60 / qpmin=0 / qpmax=69 / qpstep=4 / cplxblur=20.0 / qblur=0.5 / ip_ratio=1.40 / aq=1:1.00\nLanguage                                 : English\nDefault                                  : Yes\nForced                                   : No\n\nAudio\nID                                       : 2\nFormat                                   : DTS\nFormat/Info                              : Digital Theater Systems\nMode                                     : 16\nFormat settings, Endianness              : Big\nCodec ID                                 : A_DTS\nDuration                                 : 1h 55mn\nBit rate mode                            : Constant\nBit rate                                 : 1 509 Kbps\nChannel(s)                               : 6 channels\nChannel positions                        : Front: L C R, Side: L R, LFE\nSampling rate                            : 48.0 KHz\nBit depth                                : 24 bits\nCompression mode                         : Lossy\nStream size                              : 1.22 GiB (14%)\nLanguage                                 : English\nDefault                                  : Yes\nForced                                   : No\n\nMenu\n00:00:00.000                             : en:00:00:00.000\n00:02:57.177                             : en:00:02:57.177\n00:05:48.306                             : en:00:05:48.306\n00:09:36.910                             : en:00:09:36.910\n00:12:02.013                             : en:00:12:02.013\n00:14:56.729                             : en:00:14:56.729\n00:19:38.344                             : en:00:19:38.344\n00:22:42.319                             : en:00:22:42.319\n00:26:09.443                             : en:00:26:09.443\n00:31:03.987                             : en:00:31:03.987\n00:33:42.646                             : en:00:33:42.646\n00:35:58.990                             : en:00:35:58.990\n00:40:35.600                             : en:00:40:35.600\n00:44:04.976                             : en:00:44:04.976\n00:47:38.814                             : en:00:47:38.814\n00:51:52.026                             : en:00:51:52.026\n00:54:43.071                             : en:00:54:43.071\n00:58:57.617                             : en:00:58:57.617\n01:02:13.438                             : en:01:02:13.438\n01:04:54.182                             : en:01:04:54.182\n01:07:52.402                             : en:01:07:52.402\n01:11:53.184                             : en:01:11:53.184\n01:15:15.136                             : en:01:15:15.136\n01:18:05.723                             : en:01:18:05.723\n01:20:57.936                             : en:01:20:57.936\n01:23:13.280                             : en:01:23:13.280\n01:26:39.611                             : en:01:26:39.611\n01:29:24.401                             : en:01:29:24.401\n01:32:09.149                             : en:01:32:09.149\n01:34:41.175                             : en:01:34:41.175\n01:36:37.458                             : en:01:36:37.458\n01:38:04.587                             : en:01:38:04.587\n01:41:03.182                             : en:01:41:03.182\n01:43:11.102                             : en:01:43:11.102\n01:47:12.343                             : en:01:47:12.343\n01:50:33.001                             : en:01:50:33.001","torrent":{"xt":"urn:btih:ac4b7c928045074f6a574d2d54e57b494d5bf687","amp;dn":"Wild.2014.1080p.BluRay.x264-SPARKS","amp;tr":["udp%3A%2F%2Ftracker.openbittorrent.com%3A80","udp%3A%2F%2Fopen.demonii.com%3A1337","udp%3A%2F%2Ftracker.coppersurfer.tk%3A6969","udp%3A%2F%2Fexodus.desync.com%3A6969"],"infoHash":"ac4b7c928045074f6a574d2d54e57b494d5bf687","infoHashBuffer":{"type":"Buffer","data":[172,75,124,146,128,69,7,79,106,87,77,45,84,229,123,73,77,91,246,135]},"announce":[],"urlList":[]}}